<?xml version="1.0" standalone="no"?>
<!DOCTYPE svg PUBLIC "-//W3C//DTD SVG 20010904//EN"
 "http://www.w3.org/TR/2001/REC-SVG-20010904/DTD/svg10.dtd">
<svg version="1.0" xmlns="http://www.w3.org/2000/svg"
 width="376.000000pt" height="376.000000pt" viewBox="0 0 376.000000 376.000000"
 preserveAspectRatio="xMidYMid meet">
<metadata>
Created by potrace 1.14, written by Peter Selinger 2001-2017
</metadata>
<g transform="translate(0.000000,376.000000) scale(0.100000,-0.100000)"
fill="#000000" stroke="none">
<path d="M730 3655 c0 -6 -18 -10 -40 -10 -22 0 -40 -2 -40 -6 0 -4 -12 -7
-27 -8 -48 -1 -63 -4 -63 -12 0 -5 -7 -6 -15 -3 -8 4 -15 1 -15 -6 0 -6 -4 -9
-8 -6 -4 2 -28 -5 -52 -16 -25 -12 -47 -22 -50 -23 -27 -9 -39 -19 -33 -28 3
-5 1 -7 -5 -3 -6 3 -17 -1 -25 -9 -9 -8 -20 -15 -26 -15 -6 0 -11 -4 -11 -9 0
-5 -9 -13 -20 -16 -11 -4 -18 -11 -15 -16 4 -5 2 -9 -3 -9 -10 0 -72 -57 -72
-66 0 -4 -9 -15 -21 -25 -12 -10 -18 -23 -13 -30 4 -8 3 -9 -4 -5 -11 7 -17
-6 -13 -27 1 -5 -3 -6 -8 -3 -8 5 -36 -41 -43 -74 -2 -8 -9 -21 -16 -28 -7 -8
-10 -18 -7 -23 4 -5 1 -9 -6 -9 -7 0 -10 -3 -6 -6 3 -4 0 -22 -8 -41 -8 -19
-10 -31 -4 -27 8 4 7 0 0 -14 -6 -11 -13 -40 -14 -65 -2 -24 -7 -48 -10 -54
-4 -6 -3 -13 0 -17 9 -9 11 -46 3 -46 -8 0 -6 -37 3 -46 4 -4 2 -13 -4 -21 -6
-7 -7 -13 -2 -13 5 0 9 -9 9 -20 0 -11 -3 -20 -6 -20 -3 0 -6 -9 -6 -20 0 -11
4 -20 9 -20 5 0 4 -7 -3 -15 -7 -8 -8 -15 -3 -15 5 0 8 -12 7 -27 -1 -16 -3
-28 -4 -28 -1 0 -3 -8 -5 -17 -2 -10 1 -18 7 -18 7 0 7 -5 -1 -13 -6 -8 -8
-17 -4 -21 9 -8 12 -46 3 -46 -3 0 -6 -9 -6 -20 0 -11 4 -20 9 -20 5 0 4 -7
-3 -15 -7 -8 -9 -15 -4 -15 5 0 9 -11 9 -25 0 -14 -2 -25 -5 -25 -3 0 -6 -9
-6 -20 0 -11 4 -20 9 -20 5 0 4 -6 -2 -13 -6 -8 -8 -17 -4 -21 9 -8 12 -46 3
-46 -3 0 -6 -9 -6 -20 0 -11 4 -20 9 -20 5 0 4 -7 -3 -15 -7 -8 -9 -15 -4 -15
5 0 9 -11 9 -25 0 -14 -3 -25 -6 -25 -8 0 -5 -38 4 -46 4 -4 2 -13 -4 -21 -6
-7 -7 -13 -2 -13 5 0 9 -9 9 -20 0 -11 -3 -20 -6 -20 -9 0 -6 -32 4 -48 4 -7
2 -12 -4 -12 -6 0 -8 -5 -4 -12 10 -16 13 -48 4 -48 -9 0 -6 -32 4 -48 4 -7 2
-12 -5 -12 -7 0 -8 -5 -3 -12 8 -12 10 -33 4 -48 -7 -20 -7 -40 2 -40 6 0 5
-6 -2 -15 -7 -8 -9 -15 -4 -15 5 0 9 -11 9 -25 0 -14 -3 -25 -6 -25 -8 0 -5
-38 4 -46 4 -4 2 -13 -4 -21 -6 -7 -7 -13 -2 -13 5 0 9 -9 9 -20 0 -11 -3 -20
-6 -20 -9 0 -6 -32 4 -48 4 -7 2 -12 -6 -12 -8 0 -9 -3 -3 -8 11 -8 15 -52 5
-52 -3 0 -6 -9 -6 -20 0 -11 4 -20 9 -20 5 0 4 -6 -2 -13 -6 -8 -8 -17 -4 -21
9 -8 12 -46 3 -46 -3 0 -6 -9 -6 -20 0 -11 4 -20 9 -20 5 0 4 -7 -3 -15 -7 -8
-9 -15 -4 -15 5 0 9 -11 9 -25 0 -14 -2 -25 -5 -25 -3 0 -6 -9 -6 -20 0 -11 4
-20 9 -20 5 0 4 -6 -2 -13 -6 -8 -8 -17 -4 -21 9 -8 12 -46 3 -46 -3 0 -6 -9
-6 -20 0 -11 4 -20 9 -20 5 0 4 -6 -2 -13 -6 -8 -8 -17 -4 -21 9 -9 11 -46 3
-46 -8 0 -6 -37 3 -46 4 -4 2 -13 -4 -21 -6 -7 -7 -13 -2 -13 5 0 9 -9 9 -20
0 -11 -3 -20 -6 -20 -9 0 -6 -32 4 -48 4 -7 2 -12 -4 -12 -6 0 -8 -5 -3 -13 4
-6 8 -25 8 -42 0 -16 4 -36 8 -43 5 -6 4 -12 -1 -12 -6 0 -8 -9 -5 -20 3 -11
10 -20 15 -20 6 0 5 -7 -2 -15 -9 -10 -9 -15 -1 -15 6 0 11 -11 11 -25 0 -14
5 -25 11 -25 6 0 9 -7 5 -15 -3 -8 2 -19 12 -24 14 -8 14 -10 2 -11 -9 0 -11
-3 -5 -8 6 -4 23 -33 40 -64 16 -32 33 -58 38 -58 4 0 6 -4 3 -9 -3 -5 1 -12
10 -15 9 -3 12 -11 8 -18 -4 -7 -4 -10 0 -6 10 8 36 -14 29 -24 -2 -5 3 -8 11
-8 9 0 16 -6 16 -14 0 -8 9 -18 20 -21 11 -4 18 -11 15 -16 -4 -5 0 -9 7 -9 8
0 20 -9 28 -19 7 -11 17 -18 22 -15 4 3 8 0 8 -7 0 -7 3 -10 6 -6 4 3 12 1 20
-6 25 -22 40 -32 54 -35 8 -2 18 -9 22 -15 4 -7 8 -8 8 -2 0 5 5 4 12 -3 7 -7
22 -12 35 -12 13 0 23 -4 23 -10 0 -5 11 -10 25 -10 14 0 25 -4 25 -10 0 -5 6
-7 14 -4 8 3 24 0 36 -6 18 -10 21 -9 15 1 -6 8 -4 10 6 3 8 -4 23 -9 34 -9
11 0 26 -4 33 -8 7 -5 12 -4 12 3 0 8 6 8 20 0 15 -8 20 -8 20 1 0 8 4 9 13 0
10 -8 17 -7 25 1 9 9 12 9 12 -1 0 -7 5 -9 11 -5 17 10 52 11 72 2 11 -6 17
-5 17 2 0 6 5 8 12 4 18 -11 48 -12 48 -2 0 5 9 4 20 -2 14 -8 20 -8 20 0 0 8
6 8 20 0 14 -8 20 -8 20 0 0 8 6 8 20 0 11 -6 20 -7 20 -2 0 10 36 9 46 -1 4
-4 13 -2 21 4 9 9 13 8 13 0 0 -8 6 -9 18 -2 11 6 24 6 35 0 12 -7 17 -6 17 2
0 8 4 9 13 0 10 -8 17 -7 25 1 9 9 12 9 12 0 0 -9 5 -10 18 -3 11 6 24 6 35 0
12 -7 17 -6 17 2 0 8 4 8 15 -1 11 -9 15 -9 15 -1 0 7 5 9 12 5 18 -11 48 -12
48 -2 0 5 9 4 20 -2 14 -8 20 -8 20 0 0 8 6 8 20 0 14 -8 20 -8 20 0 0 8 6 8
20 0 11 -6 20 -7 20 -2 0 4 9 8 20 8 11 0 20 -4 20 -8 0 -5 9 -4 20 2 14 8 20
8 20 0 0 -7 6 -8 18 -1 11 6 24 6 35 0 12 -7 17 -6 17 2 0 8 4 9 13 0 10 -8
17 -7 25 1 9 9 12 9 12 0 0 -9 6 -10 18 -4 19 9 54 8 71 -2 6 -4 11 -2 11 4 0
6 5 8 12 4 18 -11 48 -12 48 -2 0 5 9 4 20 -2 14 -8 20 -8 20 0 0 8 6 8 20 0
14 -8 20 -8 20 0 0 8 6 8 20 0 11 -6 20 -7 20 -2 0 10 36 9 46 -1 4 -4 13 -2
21 4 9 9 13 8 13 0 0 -8 6 -9 18 -2 11 6 24 6 35 0 12 -7 17 -6 17 2 0 8 4 9
13 0 10 -8 17 -7 25 1 9 9 12 9 12 0 0 -9 5 -10 18 -3 11 6 24 6 35 0 12 -7
17 -6 17 2 0 8 4 8 15 -1 11 -9 15 -9 15 -1 0 7 5 9 12 5 18 -11 48 -12 48 -2
0 5 9 4 20 -2 14 -8 20 -8 20 0 0 8 6 8 20 0 14 -8 20 -8 20 0 0 8 6 8 20 0
14 -8 20 -8 20 0 0 8 6 8 20 0 14 -8 20 -8 20 0 0 8 6 8 20 0 14 -8 20 -8 20
0 0 8 6 8 20 0 14 -8 20 -8 20 0 0 8 6 8 20 0 11 -6 20 -7 20 -2 0 7 33 8 50
2 3 -1 10 -1 15 0 27 6 52 5 68 -2 11 -6 17 -5 17 3 0 8 4 8 15 -1 12 -10 15
-10 15 0 0 10 3 10 15 0 12 -10 15 -10 15 0 0 10 3 10 15 0 12 -10 15 -10 15
0 0 10 3 10 15 0 12 -10 15 -10 15 0 0 9 3 10 13 1 10 -8 17 -7 25 1 9 9 12 9
12 -1 0 -7 5 -9 11 -5 10 6 60 13 117 17 6 0 12 5 12 11 0 6 5 4 10 -4 5 -8
10 -10 10 -5 0 6 10 11 22 12 11 1 24 6 27 11 3 5 14 8 24 6 9 -1 17 2 17 7 0
5 3 8 8 7 4 -1 17 3 30 10 12 7 22 10 22 6 0 -4 8 0 18 9 10 10 22 14 25 10 4
-3 7 2 7 12 0 10 3 15 6 12 6 -6 53 23 80 48 6 5 23 19 37 30 15 11 27 25 27
32 0 7 7 13 17 13 9 0 14 3 11 6 -3 3 6 18 21 35 15 16 38 52 52 79 13 27 27
50 32 50 4 0 7 8 7 18 0 10 3 22 8 26 4 4 8 12 8 17 1 5 2 10 4 12 8 10 30
119 25 127 -3 5 -1 11 5 15 6 4 10 397 10 1166 0 762 -4 1158 -10 1154 -7 -4
-7 2 0 19 5 15 5 26 0 28 -5 2 -11 20 -12 40 -2 21 -6 38 -10 38 -5 0 -8 9 -8
19 0 11 -4 23 -10 26 -5 3 -10 15 -10 26 0 10 -5 19 -12 19 -6 0 -9 3 -5 6 6
6 -39 85 -55 95 -5 3 -10 10 -11 15 -2 13 -26 41 -77 91 -74 71 -94 89 -84 73
5 -9 1 -7 -8 3 -10 11 -18 15 -18 11 0 -5 -4 -4 -8 2 -10 16 -128 74 -136 67
-3 -4 -6 -1 -6 6 0 7 -5 9 -10 6 -6 -4 -17 -2 -23 4 -7 5 -30 11 -50 13 -20 1
-37 5 -37 8 0 3 -50 7 -111 8 -62 2 -116 5 -120 8 -5 3 -9 2 -9 -3 0 -4 -54
-6 -120 -3 -66 3 -120 3 -120 0 0 -3 -234 -3 -520 0 -286 3 -520 2 -520 -1 0
-3 -22 -3 -50 1 -27 4 -50 4 -50 0 0 -3 -27 -3 -60 0 -33 3 -60 3 -60 0 0 -6
-115 -3 -142 4 -10 2 -18 1 -18 -2 0 -4 -47 -7 -105 -7 -58 0 -105 4 -105 8 0
5 -5 5 -11 1 -18 -11 -139 -10 -143 1 -3 6 -5 5 -5 -1 -1 -8 -12 -9 -36 -4
-19 4 -35 5 -35 1 0 -11 -44 -8 -52 4 -5 7 -8 7 -8 0z"/>
</g>
</svg>
